<svg xmlns="http://www.w3.org/2000/svg" xml:space="preserve" width="655.359" height="655.359" style="shape-rendering:geometricPrecision;text-rendering:geometricPrecision;image-rendering:optimizeQuality;fill-rule:evenodd;clip-rule:evenodd" viewBox="0 0 6.827 6.827"><defs><style>.fil1{fill:#fffffe;fill-rule:nonzero}</style></defs><g id="Layer_x0020_1"><rect width="6.827" height="6.827" rx=".853" ry=".853" style="fill:#ab47bc"/><g id="_215576888"><path id="_212992384" class="fil1" d="M1.154 3.011a.568.568 0 0 0-.2.193.669.669 0 0 0-.1.357v.01c0 .043.015.083.04.113a.146.146 0 0 0 .112.052h1.08c.043 0 .083-.02.11-.052a.174.174 0 0 0 .042-.113v-.01a.669.669 0 0 0-.1-.355.57.57 0 0 0-.198-.193.417.417 0 0 1-.085.117.444.444 0 0 1-.701-.119zm.392.175a.383.383 0 0 1-.376-.36.683.683 0 0 1-.003-.095c-.001-.142.044-.235.117-.294a.418.418 0 0 1 .26-.08h.01a.414.414 0 0 1 .253.08c.073.059.119.152.118.294a2.885 2.885 0 0 1-.003.095.395.395 0 0 1-.114.255.394.394 0 0 1-.26.104h-.002z"/><path id="_212991424" class="fil1" d="M4.89 3.011a.568.568 0 0 0-.2.193.669.669 0 0 0-.101.357v.01c0 .043.016.083.041.113a.146.146 0 0 0 .111.052h1.08c.044 0 .083-.02.11-.052a.174.174 0 0 0 .042-.113v-.01a.669.669 0 0 0-.1-.355.57.57 0 0 0-.197-.193.417.417 0 0 1-.086.117.444.444 0 0 1-.7-.119zm.391.175a.383.383 0 0 1-.376-.36.682.682 0 0 1-.003-.095c-.001-.142.045-.235.118-.294a.418.418 0 0 1 .26-.08h.009a.414.414 0 0 1 .254.08c.072.059.118.152.117.294a2.88 2.88 0 0 1-.003.095.395.395 0 0 1-.114.255.394.394 0 0 1-.259.104h-.003z"/><path id="_212991472" class="fil1" d="M2.619 2.088a1.143 1.143 0 0 1 1.62.042 1.143 1.143 0 0 1-.04 1.62 1.142 1.142 0 0 1-1.62-.04h-.001a1.142 1.142 0 0 1 .041-1.622zm.815-.133a.961.961 0 0 0-.99.938.961.961 0 0 0 .26.685l.001.001.002.002.001.002a.961.961 0 0 0 1.36.04v-.001l.002-.002.001-.001a.961.961 0 0 0 .037-1.363.961.961 0 0 0-.674-.3z"/><path id="_212991904" class="fil1" d="M4.236 3.66a.091.091 0 0 0-.131.126l.308.325a.091.091 0 0 0 .131-.126l-.308-.325z"/><path id="_212991880" class="fil1" d="M4.267 4.123a.091.091 0 1 0 .126.132l.297-.282a.091.091 0 0 0-.126-.132l-.297.282z"/><path id="_212991568" class="fil1" d="M2.677 3.409a.687.687 0 0 1 .297-.257l.002.005c.03.038.06.076.088.115.037.048.072.098.104.149.03.046.056.093.077.143.03.07.054.148.075.221l.001.003a.87.87 0 0 1-.53-.252l-.017-.016-.003-.004-.003-.003-.002-.002a.643.643 0 0 1-.09-.102z"/><path id="_212991592" class="fil1" d="M3.376 3.792a3.085 3.085 0 0 0-.083-.248 1.067 1.067 0 0 0-.077-.144 2.262 2.262 0 0 0-.106-.154l-.084-.11c.016.001.03.009.04.022a.453.453 0 0 0 .545.116.412.412 0 0 0 .149-.116.052.052 0 0 1 .03-.019l-.082.107c-.037.05-.073.101-.106.154a1.067 1.067 0 0 0-.077.144 1.96 1.96 0 0 0-.083.248h-.066z"/><path id="_215557520" class="fil1" d="M3.845 3.152c.116.051.217.138.291.249a.877.877 0 0 1-.111.136l-.017.016-.004.003-.002.003L4 3.56a.766.766 0 0 1-.503.228l.001-.004c.021-.073.045-.15.075-.22a1.04 1.04 0 0 1 .077-.144c.032-.051.068-.1.104-.15.03-.038.06-.076.088-.114a.027.027 0 0 0 .003-.005z"/><path id="_215584592" class="fil1" d="M3.583 2.511h.003l.002.001h.002l.001.001h.002l.002.001h.003l.002.002h.004l.001.001h.002l.002.002h.004l.001.001h.002l.001.001.002.001h.002l.002.002h.003l.001.001h.001l.002.001.003.001.002.001.002.001.002.001.002.001h.001v.001h.002l.002.001.002.001.001.001h.002l.001.001.001.001h.002l.002.002h.002v.001h.002v.001l.002.001.002.001h.001l.002.002h.002l.002.002.002.001.001.001h.001l.001.001h.001v.001l.002.001.002.001.002.001.001.001h.001v.001h.002v.001h.001l.001.001.002.002c.04.027.069.058.075.084v.002a.473.473 0 0 1 .006.051V2.726a.405.405 0 0 1-.004.05.377.377 0 0 1-.106.225.388.388 0 0 1-.254.1.369.369 0 0 1-.251-.106l-.003-.003-.001-.001-.002-.002-.002-.003h-.001l-.002-.002-.001-.002-.001-.001-.002-.001-.001-.002-.001-.001-.002-.002v-.001l-.002-.002-.001-.001-.002-.002v-.001l-.002-.002-.001-.001-.001-.002-.002-.001-.001-.002-.001-.001-.001-.002-.002-.002-.002-.003-.001-.001-.001-.002-.002-.002-.002-.003v-.001l-.002-.002-.001-.002-.001-.001-.001-.002-.002-.002v-.001l-.002-.002v-.002l-.001-.001-.002-.002a.272.272 0 0 1-.002-.003L3.1 2.918v-.001h-.001a.36.36 0 0 1-.006-.01v-.002l-.002-.003v-.001L3.088 2.9v-.002l-.002-.002v-.002l-.002-.002V2.89l-.001-.002-.001-.001-.001-.002-.001-.002-.001-.002v-.002l-.002-.002v-.003l-.001-.001-.001-.002-.001-.002v-.002l-.002-.002v-.002l-.001-.002v-.002l-.002-.003v-.001l-.001-.003V2.85l-.002-.002v-.002l-.001-.002v-.002l-.001-.002-.001-.003v-.001l-.001-.003-.001-.002v-.002l-.001-.003v-.001l-.002-.003v-.004l-.001-.003-.001-.004-.001-.004-.001-.005-.001-.005-.001-.004V2.79l-.001-.003v-.002l-.001-.003v-.005l-.001-.002v-.003l-.001-.002v-.005l-.001-.002V2.76a.496.496 0 0 1 .166-.117.39.39 0 0 0 .148-.106.226.226 0 0 1-.01.056.04.04 0 0 0 .046.055c.102-.027.139-.089.174-.178.02-.05.039-.102.054-.153a.013.013 0 0 1 .025.007 1.827 1.827 0 0 1-.068.187zm.425.679-.006-.365L4 2.682c.002-.223-.069-.368-.18-.458a.657.657 0 0 0-.412-.125.66.66 0 0 0-.41.125c-.11.09-.181.235-.18.458a35.84 35.84 0 0 0 .016.489.685.685 0 0 1 .105-.06v-.003l.048-.018a.106.106 0 0 1 .12.035.409.409 0 0 0 .302.141.45.45 0 0 0 .18-.04.36.36 0 0 0 .123-.093l.007-.008a.106.106 0 0 1 .123-.03c.06.024.115.056.166.095z"/><path id="_215580416" class="fil1" d="m4.312 4.08.212-.2.063.065-.063-.066a.091.091 0 0 1 .133.008l.766.807-.066.063.066-.063a.091.091 0 0 1-.008.134l-.212.2-.063-.066.063.067a.091.091 0 0 1-.133-.009l-.766-.807.066-.062-.066.062a.091.091 0 0 1 .008-.133z"/></g></g></svg>